<mxfile host="app.diagrams.net" modified="2022-12-19T06:35:47.936Z" agent="5.0 (Windows NT 10.0; Win64; x64) AppleWebKit/537.36 (KHTML, like Gecko) Chrome/108.0.0.0 Safari/537.36" etag="kes5CT4M-cyQwswryOwW" version="20.7.2" type="github">
  <diagram id="SmYG5MukR3YPICphpjvJ" name="Page-1">
    <mxGraphModel dx="1434" dy="1807" grid="1" gridSize="10" guides="1" tooltips="1" connect="1" arrows="1" fold="1" page="1" pageScale="1" pageWidth="850" pageHeight="1100" math="0" shadow="0">
      <root>
        <mxCell id="0" />
        <mxCell id="1" parent="0" />
        <mxCell id="dnO-d9EWTdy368bAa7Uc-15" value="System" style="shape=umlFrame;whiteSpace=wrap;html=1;width=120;height=30;boundedLbl=1;verticalAlign=middle;align=left;spacingLeft=5;fillColor=none;strokeColor=#6c8ebf;" vertex="1" parent="1">
          <mxGeometry x="10" y="-920" width="1130" height="300" as="geometry" />
        </mxCell>
        <mxCell id="dnO-d9EWTdy368bAa7Uc-16" value="User" style="shape=umlFrame;whiteSpace=wrap;html=1;width=120;height=30;boundedLbl=1;verticalAlign=middle;align=left;spacingLeft=5;fillColor=none;strokeColor=#6c8ebf;" vertex="1" parent="1">
          <mxGeometry x="10" y="-1050" width="1130" height="130" as="geometry" />
        </mxCell>
        <mxCell id="dnO-d9EWTdy368bAa7Uc-19" value="" style="edgeStyle=orthogonalEdgeStyle;rounded=1;orthogonalLoop=1;jettySize=auto;html=1;endArrow=open;endFill=0;" edge="1" parent="1" source="dnO-d9EWTdy368bAa7Uc-20" target="dnO-d9EWTdy368bAa7Uc-25">
          <mxGeometry relative="1" as="geometry" />
        </mxCell>
        <mxCell id="dnO-d9EWTdy368bAa7Uc-20" value="User fill the related fields on Search Filter" style="rounded=1;whiteSpace=wrap;html=1;fillStyle=auto;fillColor=#dae8fc;strokeColor=#6c8ebf;" vertex="1" parent="1">
          <mxGeometry x="260" y="-1020" width="120" height="60" as="geometry" />
        </mxCell>
        <mxCell id="dnO-d9EWTdy368bAa7Uc-21" value="" style="edgeStyle=orthogonalEdgeStyle;rounded=0;orthogonalLoop=1;jettySize=auto;html=1;endArrow=open;endFill=0;" edge="1" parent="1" source="dnO-d9EWTdy368bAa7Uc-25" target="dnO-d9EWTdy368bAa7Uc-27">
          <mxGeometry relative="1" as="geometry" />
        </mxCell>
        <mxCell id="dnO-d9EWTdy368bAa7Uc-22" value="Yes" style="edgeLabel;html=1;align=center;verticalAlign=middle;resizable=0;points=[];fontStyle=1" vertex="1" connectable="0" parent="dnO-d9EWTdy368bAa7Uc-21">
          <mxGeometry x="-0.1189" y="1" relative="1" as="geometry">
            <mxPoint as="offset" />
          </mxGeometry>
        </mxCell>
        <mxCell id="dnO-d9EWTdy368bAa7Uc-23" style="edgeStyle=orthogonalEdgeStyle;rounded=1;orthogonalLoop=1;jettySize=auto;html=1;entryX=0;entryY=1;entryDx=0;entryDy=0;" edge="1" parent="1" source="dnO-d9EWTdy368bAa7Uc-25" target="dnO-d9EWTdy368bAa7Uc-20">
          <mxGeometry relative="1" as="geometry">
            <Array as="points">
              <mxPoint x="230" y="-820" />
              <mxPoint x="230" y="-960" />
            </Array>
          </mxGeometry>
        </mxCell>
        <mxCell id="dnO-d9EWTdy368bAa7Uc-24" value="No" style="edgeLabel;html=1;align=center;verticalAlign=middle;resizable=0;points=[];fontStyle=1" vertex="1" connectable="0" parent="dnO-d9EWTdy368bAa7Uc-23">
          <mxGeometry x="-0.2554" relative="1" as="geometry">
            <mxPoint as="offset" />
          </mxGeometry>
        </mxCell>
        <mxCell id="dnO-d9EWTdy368bAa7Uc-25" value="Are the fields filled as required?" style="rhombus;whiteSpace=wrap;html=1;fillColor=#e1d5e7;rounded=0;fillStyle=auto;strokeColor=#9673a6;" vertex="1" parent="1">
          <mxGeometry x="250" y="-890" width="140" height="140" as="geometry" />
        </mxCell>
        <mxCell id="dnO-d9EWTdy368bAa7Uc-26" value="" style="edgeStyle=orthogonalEdgeStyle;rounded=1;orthogonalLoop=1;jettySize=auto;html=1;endArrow=open;endFill=0;" edge="1" parent="1" source="dnO-d9EWTdy368bAa7Uc-27" target="dnO-d9EWTdy368bAa7Uc-29">
          <mxGeometry relative="1" as="geometry" />
        </mxCell>
        <mxCell id="dnO-d9EWTdy368bAa7Uc-27" value="Search button will be active" style="whiteSpace=wrap;html=1;fillColor=#dae8fc;rounded=1;fillStyle=auto;strokeColor=#6c8ebf;" vertex="1" parent="1">
          <mxGeometry x="480" y="-850" width="120" height="60" as="geometry" />
        </mxCell>
        <mxCell id="dnO-d9EWTdy368bAa7Uc-28" style="edgeStyle=orthogonalEdgeStyle;rounded=1;orthogonalLoop=1;jettySize=auto;html=1;exitX=1;exitY=0.5;exitDx=0;exitDy=0;entryX=0.5;entryY=0;entryDx=0;entryDy=0;endArrow=open;endFill=0;" edge="1" parent="1" source="dnO-d9EWTdy368bAa7Uc-29" target="dnO-d9EWTdy368bAa7Uc-38">
          <mxGeometry relative="1" as="geometry" />
        </mxCell>
        <mxCell id="dnO-d9EWTdy368bAa7Uc-29" value="User click the search button" style="whiteSpace=wrap;html=1;fillColor=#dae8fc;rounded=1;fillStyle=auto;strokeColor=#6c8ebf;" vertex="1" parent="1">
          <mxGeometry x="480" y="-1020" width="120" height="60" as="geometry" />
        </mxCell>
        <mxCell id="dnO-d9EWTdy368bAa7Uc-30" value="" style="edgeStyle=orthogonalEdgeStyle;rounded=1;orthogonalLoop=1;jettySize=auto;html=1;endArrow=open;endFill=0;" edge="1" parent="1" source="dnO-d9EWTdy368bAa7Uc-31" target="dnO-d9EWTdy368bAa7Uc-33">
          <mxGeometry relative="1" as="geometry" />
        </mxCell>
        <mxCell id="dnO-d9EWTdy368bAa7Uc-31" value="System shows results as requested" style="whiteSpace=wrap;html=1;fillColor=#dae8fc;rounded=1;fillStyle=auto;strokeColor=#6c8ebf;" vertex="1" parent="1">
          <mxGeometry x="860" y="-850" width="120" height="60" as="geometry" />
        </mxCell>
        <mxCell id="dnO-d9EWTdy368bAa7Uc-32" style="edgeStyle=orthogonalEdgeStyle;rounded=1;orthogonalLoop=1;jettySize=auto;html=1;exitX=1;exitY=0.5;exitDx=0;exitDy=0;entryX=0;entryY=0.5;entryDx=0;entryDy=0;endArrow=open;endFill=0;" edge="1" parent="1" source="dnO-d9EWTdy368bAa7Uc-33">
          <mxGeometry relative="1" as="geometry">
            <mxPoint x="1070" y="-990" as="targetPoint" />
          </mxGeometry>
        </mxCell>
        <mxCell id="dnO-d9EWTdy368bAa7Uc-33" value="User can see related customers and click the customer info" style="whiteSpace=wrap;html=1;fillColor=#dae8fc;rounded=1;fillStyle=auto;strokeColor=#6c8ebf;" vertex="1" parent="1">
          <mxGeometry x="860" y="-1020" width="120" height="60" as="geometry" />
        </mxCell>
        <mxCell id="dnO-d9EWTdy368bAa7Uc-34" style="edgeStyle=orthogonalEdgeStyle;rounded=0;orthogonalLoop=1;jettySize=auto;html=1;exitX=1;exitY=0.5;exitDx=0;exitDy=0;entryX=0;entryY=0.5;entryDx=0;entryDy=0;endArrow=open;endFill=0;" edge="1" parent="1" source="dnO-d9EWTdy368bAa7Uc-38" target="dnO-d9EWTdy368bAa7Uc-31">
          <mxGeometry relative="1" as="geometry" />
        </mxCell>
        <mxCell id="dnO-d9EWTdy368bAa7Uc-35" value="Yes" style="edgeLabel;html=1;align=center;verticalAlign=middle;resizable=0;points=[];fontStyle=1" vertex="1" connectable="0" parent="dnO-d9EWTdy368bAa7Uc-34">
          <mxGeometry x="-0.1193" relative="1" as="geometry">
            <mxPoint as="offset" />
          </mxGeometry>
        </mxCell>
        <mxCell id="dnO-d9EWTdy368bAa7Uc-36" value="" style="edgeStyle=orthogonalEdgeStyle;rounded=1;orthogonalLoop=1;jettySize=auto;html=1;endArrow=open;endFill=0;" edge="1" parent="1" source="dnO-d9EWTdy368bAa7Uc-38" target="dnO-d9EWTdy368bAa7Uc-39">
          <mxGeometry relative="1" as="geometry" />
        </mxCell>
        <mxCell id="dnO-d9EWTdy368bAa7Uc-37" value="No" style="edgeLabel;html=1;align=center;verticalAlign=middle;resizable=0;points=[];fontStyle=1" vertex="1" connectable="0" parent="dnO-d9EWTdy368bAa7Uc-36">
          <mxGeometry x="-0.2149" relative="1" as="geometry">
            <mxPoint as="offset" />
          </mxGeometry>
        </mxCell>
        <mxCell id="dnO-d9EWTdy368bAa7Uc-38" value="Any results found?" style="rhombus;whiteSpace=wrap;html=1;fillColor=#e1d5e7;rounded=0;fillStyle=auto;strokeColor=#9673a6;" vertex="1" parent="1">
          <mxGeometry x="650" y="-890" width="140" height="140" as="geometry" />
        </mxCell>
        <mxCell id="dnO-d9EWTdy368bAa7Uc-39" value="System shows &quot;No customer found. Would you like to add customer?" style="whiteSpace=wrap;html=1;fillColor=#dae8fc;rounded=1;fillStyle=auto;strokeColor=#6c8ebf;glass=0;" vertex="1" parent="1">
          <mxGeometry x="655" y="-710" width="130" height="70" as="geometry" />
        </mxCell>
        <mxCell id="dnO-d9EWTdy368bAa7Uc-40" value="" style="ellipse;html=1;shape=startState;fillColor=#000000;strokeColor=#ff0000;" vertex="1" parent="1">
          <mxGeometry x="80" y="-1005" width="30" height="30" as="geometry" />
        </mxCell>
        <mxCell id="dnO-d9EWTdy368bAa7Uc-41" value="" style="edgeStyle=orthogonalEdgeStyle;html=1;verticalAlign=bottom;endArrow=open;endSize=8;strokeColor=#ff0000;rounded=0;entryX=0;entryY=0.5;entryDx=0;entryDy=0;" edge="1" parent="1" source="dnO-d9EWTdy368bAa7Uc-40" target="dnO-d9EWTdy368bAa7Uc-20">
          <mxGeometry relative="1" as="geometry">
            <mxPoint x="115" y="-800" as="targetPoint" />
          </mxGeometry>
        </mxCell>
        <mxCell id="dnO-d9EWTdy368bAa7Uc-42" value="" style="ellipse;html=1;shape=endState;fillColor=#000000;strokeColor=#ff0000;" vertex="1" parent="1">
          <mxGeometry x="1070" y="-1005" width="30" height="30" as="geometry" />
        </mxCell>
        <mxCell id="dnO-d9EWTdy368bAa7Uc-59" value="Customer Search AD" style="rounded=0;whiteSpace=wrap;html=1;fillColor=none;strokeColor=#6c8ebf;" vertex="1" parent="1">
          <mxGeometry x="10" y="-1080" width="120" height="30" as="geometry" />
        </mxCell>
        <mxCell id="dnO-d9EWTdy368bAa7Uc-61" value="System" style="shape=umlFrame;whiteSpace=wrap;html=1;width=120;height=30;boundedLbl=1;verticalAlign=middle;align=left;spacingLeft=5;fillColor=none;strokeColor=#6c8ebf;" vertex="1" parent="1">
          <mxGeometry x="10" y="-390" width="1130" height="340" as="geometry" />
        </mxCell>
        <mxCell id="dnO-d9EWTdy368bAa7Uc-62" value="User" style="shape=umlFrame;whiteSpace=wrap;html=1;width=120;height=30;boundedLbl=1;verticalAlign=middle;align=left;spacingLeft=5;fillColor=none;strokeColor=#6c8ebf;" vertex="1" parent="1">
          <mxGeometry x="10" y="-520" width="1130" height="130" as="geometry" />
        </mxCell>
        <mxCell id="dnO-d9EWTdy368bAa7Uc-63" value="" style="ellipse;html=1;shape=startState;fillColor=#000000;strokeColor=#ff0000;" vertex="1" parent="1">
          <mxGeometry x="60" y="-475" width="30" height="30" as="geometry" />
        </mxCell>
        <mxCell id="dnO-d9EWTdy368bAa7Uc-64" value="" style="edgeStyle=orthogonalEdgeStyle;html=1;verticalAlign=bottom;endArrow=open;endSize=8;strokeColor=#ff0000;rounded=0;entryX=0;entryY=0.5;entryDx=0;entryDy=0;" edge="1" parent="1" source="dnO-d9EWTdy368bAa7Uc-63" target="dnO-d9EWTdy368bAa7Uc-66">
          <mxGeometry relative="1" as="geometry">
            <mxPoint x="75" y="-385" as="targetPoint" />
          </mxGeometry>
        </mxCell>
        <mxCell id="dnO-d9EWTdy368bAa7Uc-65" value="" style="edgeStyle=orthogonalEdgeStyle;rounded=0;orthogonalLoop=1;jettySize=auto;html=1;" edge="1" parent="1" source="dnO-d9EWTdy368bAa7Uc-66" target="dnO-d9EWTdy368bAa7Uc-68">
          <mxGeometry relative="1" as="geometry" />
        </mxCell>
        <mxCell id="dnO-d9EWTdy368bAa7Uc-66" value="Go login screen" style="whiteSpace=wrap;html=1;fillColor=#dae8fc;strokeColor=#6c8ebf;" vertex="1" parent="1">
          <mxGeometry x="200" y="-490" width="120" height="60" as="geometry" />
        </mxCell>
        <mxCell id="dnO-d9EWTdy368bAa7Uc-67" value="" style="edgeStyle=orthogonalEdgeStyle;rounded=0;orthogonalLoop=1;jettySize=auto;html=1;" edge="1" parent="1" source="dnO-d9EWTdy368bAa7Uc-68" target="dnO-d9EWTdy368bAa7Uc-73">
          <mxGeometry relative="1" as="geometry" />
        </mxCell>
        <mxCell id="dnO-d9EWTdy368bAa7Uc-68" value="Enter username and password" style="whiteSpace=wrap;html=1;fillColor=#dae8fc;strokeColor=#6c8ebf;" vertex="1" parent="1">
          <mxGeometry x="400" y="-490" width="120" height="60" as="geometry" />
        </mxCell>
        <mxCell id="dnO-d9EWTdy368bAa7Uc-69" value="" style="edgeStyle=orthogonalEdgeStyle;rounded=0;orthogonalLoop=1;jettySize=auto;html=1;" edge="1" parent="1" source="dnO-d9EWTdy368bAa7Uc-73" target="dnO-d9EWTdy368bAa7Uc-75">
          <mxGeometry relative="1" as="geometry" />
        </mxCell>
        <mxCell id="dnO-d9EWTdy368bAa7Uc-70" value="Yes" style="edgeLabel;html=1;align=center;verticalAlign=middle;resizable=0;points=[];" vertex="1" connectable="0" parent="dnO-d9EWTdy368bAa7Uc-69">
          <mxGeometry x="-0.1706" y="-1" relative="1" as="geometry">
            <mxPoint as="offset" />
          </mxGeometry>
        </mxCell>
        <mxCell id="dnO-d9EWTdy368bAa7Uc-71" value="" style="edgeStyle=orthogonalEdgeStyle;rounded=0;orthogonalLoop=1;jettySize=auto;html=1;" edge="1" parent="1" source="dnO-d9EWTdy368bAa7Uc-73" target="dnO-d9EWTdy368bAa7Uc-77">
          <mxGeometry relative="1" as="geometry" />
        </mxCell>
        <mxCell id="dnO-d9EWTdy368bAa7Uc-72" value="No" style="edgeLabel;html=1;align=center;verticalAlign=middle;resizable=0;points=[];" vertex="1" connectable="0" parent="dnO-d9EWTdy368bAa7Uc-71">
          <mxGeometry x="-0.1011" y="-1" relative="1" as="geometry">
            <mxPoint as="offset" />
          </mxGeometry>
        </mxCell>
        <mxCell id="dnO-d9EWTdy368bAa7Uc-73" value="Are username and password correct?" style="rhombus;whiteSpace=wrap;html=1;fillColor=#e1d5e7;strokeColor=#9673a6;" vertex="1" parent="1">
          <mxGeometry x="385" y="-360" width="150" height="150" as="geometry" />
        </mxCell>
        <mxCell id="dnO-d9EWTdy368bAa7Uc-74" style="edgeStyle=orthogonalEdgeStyle;rounded=0;orthogonalLoop=1;jettySize=auto;html=1;entryX=0;entryY=0.5;entryDx=0;entryDy=0;" edge="1" parent="1" source="dnO-d9EWTdy368bAa7Uc-75" target="dnO-d9EWTdy368bAa7Uc-78">
          <mxGeometry relative="1" as="geometry" />
        </mxCell>
        <mxCell id="dnO-d9EWTdy368bAa7Uc-75" value="Open Search Customer and Filter page" style="whiteSpace=wrap;html=1;fillColor=#dae8fc;strokeColor=#6c8ebf;" vertex="1" parent="1">
          <mxGeometry x="630" y="-315" width="120" height="60" as="geometry" />
        </mxCell>
        <mxCell id="dnO-d9EWTdy368bAa7Uc-76" style="edgeStyle=orthogonalEdgeStyle;rounded=0;orthogonalLoop=1;jettySize=auto;html=1;entryX=0.5;entryY=1;entryDx=0;entryDy=0;" edge="1" parent="1" source="dnO-d9EWTdy368bAa7Uc-77" target="dnO-d9EWTdy368bAa7Uc-78">
          <mxGeometry relative="1" as="geometry" />
        </mxCell>
        <mxCell id="dnO-d9EWTdy368bAa7Uc-77" value="System shows &quot;Wrong name or password&quot;" style="whiteSpace=wrap;html=1;fillColor=#dae8fc;strokeColor=#6c8ebf;" vertex="1" parent="1">
          <mxGeometry x="400" y="-150" width="120" height="60" as="geometry" />
        </mxCell>
        <mxCell id="dnO-d9EWTdy368bAa7Uc-78" value="" style="ellipse;html=1;shape=endState;fillColor=#000000;strokeColor=#ff0000;" vertex="1" parent="1">
          <mxGeometry x="910" y="-300" width="30" height="30" as="geometry" />
        </mxCell>
        <mxCell id="dnO-d9EWTdy368bAa7Uc-79" value="User Login AD" style="rounded=0;whiteSpace=wrap;html=1;fillColor=none;strokeColor=#6c8ebf;" vertex="1" parent="1">
          <mxGeometry x="10" y="-550" width="120" height="30" as="geometry" />
        </mxCell>
      </root>
    </mxGraphModel>
  </diagram>
</mxfile>
